# xmcd
#
# Track frame offsets: 
#        150
#        3457
#        16993
#        23493
#        33304
#        50966
#        75070
#        87411
#        102837
#        117906
#        121491
#        128896
#        146529
#        161648
#        172500
#        187230
#        199161
#        222079
#        230349
#        251826
#        261650
#
# Disc length: 3761 seconds
#
# Revision: 0
# Processed by: cddbd v1.5.2PL0 Copyright (c) Steve Scherf et al.
# Submitted via: ExactAudioCopyFreeDBPlugin 1.0
#
DISCID=1c0eaf15
DTITLE=Ensemble Nobiles - Ensemble Nobiles - Bis Willekommen
DYEAR=2014
DGENRE=Vocal
TTITLE0=Advent - Conditor alme siderum
TTITLE1=Advent - Macht hoch die Tür, die Tor wacht weit
TTITLE2=Advent - Nun freut euch, lieben Christen g'mein
TTITLE3=Advent - O Heiland, reiss die Himmel auf
TTITLE4=Advent - Es kommt ein Schiff
TTITLE5=Advent - Conditor alme siderum
TTITLE6=Advent - Es kommt ein Schiff
TTITLE7=Advent - Ave Maria
TTITLE8=Advent - Die Nacht ist vorgedrungen
TTITLE9=Advent - Laus, honor, virtus, gloria
TTITLE10=Christmas - Bis willekommen, Herre Christ
TTITLE11=Christmas - Maria durch ein Dornwald ging
TTITLE12=Christmas - Puer natus in Bethlehem
TTITLE13=Christmas - Lobt Gott, ihr Christen allzugleich
TTITLE14=Christmas - Resonet in laudibus
TTITLE15=Christmas - Stille Nacht, heilige Nacht
TTITLE16=Epiphany - Jauchzet dem Herrn
TTITLE17=Epiphany - Auf, Seele, auf und säume nicht
TTITLE18=Epiphany - Herr Christ, der einig Gottes Sohn
TTITLE19=Epiphany - O lieber Herre Jesu Christ
TTITLE20=Epiphany - Der 100. Psalm
EXTD=
EXTT0=
EXTT1=
EXTT2=
EXTT3=
EXTT4=
EXTT5=
EXTT6=
EXTT7=
EXTT8=
EXTT9=
EXTT10=
EXTT11=
EXTT12=
EXTT13=
EXTT14=
EXTT15=
EXTT16=
EXTT17=
EXTT18=
EXTT19=
EXTT20=
PLAYORDER=
